<svg xmlns="http://www.w3.org/2000/svg" viewBox="0 0 200 200">
    <title>SDUOJ Logo</title>
    <g style="fill: #930e14;">
        <path d="m190.9,126.2c-14.7,11.3-26.4-1.8-26.4-1.8-19.5,18.1-35,.9-35,.9-12.2,8.7-17.6,6.9-17.6,6.9l-4.1-29.4,24-.2,4.3,9.6h13.8l-4.3-9.4h16.3l4.1,9.6,14-.7-3.8-8.7h12l.2-13.4-19.2.4-24-47.5-18.8,19.6-26-52.4-26.5,52.4-18.5-19.6-19,37.9-24.2-.7-.2,13.8,17.6-.7-7.7,16.5h13.3l7.9-16.5,16.3-.4-7.5,16.9h13.6l7.7-16.9,20.6.2-7,9.6,5.7.2-3.6,29.4c-6.8,1.6-17.2-6.9-17.2-6.9-19.4,17.4-36.2-.7-36.2-.7-12.2,13.4-26.5,2-26.5,2l-3.4,8c15.8,10,30.1.7,30.1.7,20.1,12.7,36,.9,36,.9,19.9,12.5,28.3.5,28.3.5,13.1,11.6,29.2-.7,29.2-.7,16,12.5,35-.4,35-.4,16.1,9.6,30.5-.7,30.5-.7l-3.6-8.5Zm-48.8-63.7l13.6,28.1-15.8.9-8.4-18.3,10.6-10.7Zm-77.1,18.5l-15.6-.7,8.8-17.4,10.2,10.2-3.4,7.8Zm40.2,1.1l-2.3-15.8-5.9-.2-2.3,16-16.7-.9,22.2-45.5,25.8,55.9-19.7.4,7.7-9.8-8.8-.2Z" />
        <path d="m9.3,185v-3.9h21.4v-11.4c.1-1.4-.5-2.1-2-2H9.3v-20.2h31v3.9h-21.2v12.5h15.8c2.1,0,3.6.4,4.4,1.2.8.8,1.2,2.3,1.2,4.4v15.5H9.3Z" />
        <path d="m49,185v-37.4h22.9c1.2,0,2.4.5,3.4,1.5l5.8,7.1v28.8h-32.1Zm9.4-3.9h13.3v-24.7l-3.1-4c-.7-.7-1.5-1-2.6-1h-7.6v29.7Z" />
        <path d="m89.7,185v-37.4h9.8v33.6h12.5v-33.6h9.8v37.4h-32.1Z" />
        <path d="m130.3,185v-37.4h26.2c2.1,0,3.6.4,4.4,1.2.8.8,1.2,2.3,1.2,4.4v31.9h-31.8Zm22.1-31.6c.1-1.4-.5-2.1-2-2h-10.4v29.7h12.4v-27.8Z" />
        <path d="m168,185v-3.9h13.5v-33.6h9.8v37.4h-23.3Z" />
    </g>
</svg>